<svg width="55" height="55" viewBox="0 0 55 55" fill="none" xmlns="http://www.w3.org/2000/svg">
<g filter="url(#filter0_i_55_1629)">
<circle cx="27.5" cy="27.5" r="27.5" fill="#0E0F12"/>
<circle cx="27.5" cy="27.5" r="27.5" fill="url(#paint0_radial_55_1629)" fill-opacity="0.3"/>
</g>
<path d="M23.38 34.3C20.04 34.3 17.82 31.42 17.82 26.96C17.82 22.6 19.98 19.7 23.38 19.7C26.7 19.7 28.92 22.54 28.92 26.96C28.92 31.34 26.76 34.3 23.38 34.3ZM23.38 32.08C25.28 32.08 26.5 30.08 26.5 26.96C26.5 23.88 25.28 21.9 23.38 21.9C21.46 21.9 20.24 23.88 20.24 26.96C20.24 30.08 21.46 32.08 23.38 32.08ZM35.9144 34H33.5144V23.58C32.8544 24.5 31.7944 24.98 30.3544 24.98H30.1944V22.68H30.3544C32.4344 22.68 33.5344 21.82 33.5344 20.2V20H35.9144V34Z" fill="#A3FF12"/>
<defs>
<filter id="filter0_i_55_1629" x="0" y="0" width="55" height="56" filterUnits="userSpaceOnUse" color-interpolation-filters="sRGB">
<feFlood flood-opacity="0" result="BackgroundImageFix"/>
<feBlend mode="normal" in="SourceGraphic" in2="BackgroundImageFix" result="shape"/>
<feColorMatrix in="SourceAlpha" type="matrix" values="0 0 0 0 0 0 0 0 0 0 0 0 0 0 0 0 0 0 127 0" result="hardAlpha"/>
<feOffset dy="1"/>
<feGaussianBlur stdDeviation="1"/>
<feComposite in2="hardAlpha" operator="arithmetic" k2="-1" k3="1"/>
<feColorMatrix type="matrix" values="0 0 0 0 0.639216 0 0 0 0 0.956863 0 0 0 0 0.686275 0 0 0 0.5 0"/>
<feBlend mode="normal" in2="shape" result="effect1_innerShadow_55_1629"/>
</filter>
<radialGradient id="paint0_radial_55_1629" cx="0" cy="0" r="1" gradientUnits="userSpaceOnUse" gradientTransform="translate(27.531 2.16855e-06) rotate(90.0323) scale(55)">
<stop stop-color="#79FAA6"/>
<stop offset="0.495" stop-color="#0E0F12"/>
</radialGradient>
</defs>
</svg>
