<svg width="55" height="55" viewBox="0 0 55 55" fill="none" xmlns="http://www.w3.org/2000/svg">
<g filter="url(#filter0_i_55_1649)">
<circle cx="27.5" cy="27.5" r="27.5" fill="#0E0F12"/>
<circle cx="27.5" cy="27.5" r="27.5" fill="url(#paint0_radial_55_1649)" fill-opacity="0.3"/>
</g>
<path d="M21.38 34.3C18.04 34.3 15.82 31.42 15.82 26.96C15.82 22.6 17.98 19.7 21.38 19.7C24.7 19.7 26.92 22.54 26.92 26.96C26.92 31.34 24.76 34.3 21.38 34.3ZM21.38 32.08C23.28 32.08 24.5 30.08 24.5 26.96C24.5 23.88 23.28 21.9 21.38 21.9C19.46 21.9 18.24 23.88 18.24 26.96C18.24 30.08 19.46 32.08 21.38 32.08ZM34.0544 34.32C30.7544 34.32 28.4944 32.5 28.3344 29.54H30.7944C30.9344 31.16 32.1944 32.14 34.0544 32.14C35.7744 32.14 36.8544 31.28 36.8544 29.96C36.8544 28.66 35.7944 27.86 34.0344 27.86H31.8544V25.88H34.0344C35.4544 25.88 36.3144 24.98 36.3144 23.88C36.3144 22.72 35.3744 21.86 33.9744 21.86C32.5544 21.86 31.4744 22.76 31.2944 24.14H28.8144C29.0944 21.46 31.1744 19.7 34.0544 19.7C36.7744 19.7 38.7144 21.26 38.7144 23.44C38.7144 25.1 37.5744 26.38 35.8944 26.74C37.9544 27.12 39.1944 28.44 39.1944 30.3C39.1944 32.68 37.1544 34.32 34.0544 34.32Z" fill="#A3FF12"/>
<defs>
<filter id="filter0_i_55_1649" x="0" y="0" width="55" height="56" filterUnits="userSpaceOnUse" color-interpolation-filters="sRGB">
<feFlood flood-opacity="0" result="BackgroundImageFix"/>
<feBlend mode="normal" in="SourceGraphic" in2="BackgroundImageFix" result="shape"/>
<feColorMatrix in="SourceAlpha" type="matrix" values="0 0 0 0 0 0 0 0 0 0 0 0 0 0 0 0 0 0 127 0" result="hardAlpha"/>
<feOffset dy="1"/>
<feGaussianBlur stdDeviation="1"/>
<feComposite in2="hardAlpha" operator="arithmetic" k2="-1" k3="1"/>
<feColorMatrix type="matrix" values="0 0 0 0 0.639216 0 0 0 0 0.956863 0 0 0 0 0.686275 0 0 0 0.5 0"/>
<feBlend mode="normal" in2="shape" result="effect1_innerShadow_55_1649"/>
</filter>
<radialGradient id="paint0_radial_55_1649" cx="0" cy="0" r="1" gradientUnits="userSpaceOnUse" gradientTransform="translate(27.531 2.16855e-06) rotate(90.0323) scale(55)">
<stop stop-color="#79FAA6"/>
<stop offset="0.495" stop-color="#0E0F12"/>
</radialGradient>
</defs>
</svg>
